<?xml version="1.0" encoding="UTF-8" standalone="no"?>
<svg
   xmlns:dc="http://purl.org/dc/elements/1.1/"
   xmlns:cc="http://creativecommons.org/ns#"
   xmlns:rdf="http://www.w3.org/1999/02/22-rdf-syntax-ns#"
   xmlns:svg="http://www.w3.org/2000/svg"
   xmlns="http://www.w3.org/2000/svg"
   viewBox="0 0 22.764738 35.826023"
   height="35.826023"
   width="22.764738"
   version="1.1"
   id="svg2">
  <metadata
     id="metadata8">
    <rdf:RDF>
      <cc:Work
         rdf:about="">
        <dc:format>image/svg+xml</dc:format>
        <dc:type
           rdf:resource="http://purl.org/dc/dcmitype/StillImage" />
        <dc:title></dc:title>
      </cc:Work>
    </rdf:RDF>
  </metadata>
  <defs
     id="defs6" />
  <path
     id="path3394"
     d="m 8.873105,34.826023 c 0,-0.55 1.1250005,-1 2.5,-1 1.375,0 2.5,0.45 2.5,1 0,0.55 -1.125,1 -2.5,1 -1.3749995,0 -2.5,-0.45 -2.5,-1 z m -1,-3 c 0,-0.55 1.575,-1 3.5,-1 1.925,0 3.5,0.45 3.5,1 0,0.55 -1.575,1 -3.5,1 -1.925,0 -3.5,-0.45 -3.5,-1 z m 1.76166,-2.707261 c 1.243912,-0.239193 3.043912,-0.230112 3.999999,0.02018 0.956088,0.250292 -0.06166,0.445996 -2.261659,0.434897 -2.2,-0.0111 -2.982253,-0.215885 -1.73834,-0.455078 z M 6.585874,27.205458 C 6.193851,26.813435 5.873105,25.683317 5.873105,24.694085 c 0,-0.989233 -1.35,-3.927334 -3,-6.529114 -3.40019504,-5.361552 -3.63305504,-7.202624 -1.483841,-11.7317559 3.925469,-8.2723125 15.822874,-8.6536155 19.966914,-0.6399247 2.204089,4.2622376 1.883533,7.0630936 -1.401144,12.2424906 -1.604938,2.530726 -3.067438,5.656328 -3.25,6.945781 -0.284892,2.012235 -0.974885,2.386421 -4.869161,2.640563 C 9.340396,27.78498 6.977896,27.597485 6.585874,27.205458 Z M 8.621277,19.459377 C 8.377404,17.736032 7.847564,15.426023 7.443854,14.326023 6.720325,12.354604 6.732437,12.353762 8.29147,14.267153 c 0.95381,1.170604 1.581635,3.849996 1.581635,6.75 0,3.607884 0.374616,4.80887 1.5,4.80887 1.125384,0 1.5,-1.200986 1.5,-4.80887 0,-2.900004 0.627825,-5.579396 1.581635,-6.75 1.558843,-1.913158 1.570698,-1.912309 0.822628,0.05887 -0.417454,1.1 -0.894804,4.25 -1.060777,7 l -0.30177,5 1.563334,-3.449304 c 0.859834,-1.897117 2.425448,-4.545304 3.479142,-5.884859 4.706459,-5.983293 0.35033,-15.1658366 -7.194558,-15.1658366 -5.495306,0 -9.889634,3.9786068 -9.889634,8.9540346 0,2.284099 0.80437,4.798838 2.035656,6.364164 1.11961,1.423354 2.56485,4.07154 3.211644,5.884859 0.890716,2.497165 1.269175,2.844128 1.560133,1.430296 0.211279,-1.026656 0.184612,-3.276656 -0.05926,-5 z"
     style="fill:#3aacfe" />
</svg>
