<?xml version="1.0" encoding="UTF-8" standalone="no"?>
<svg
   xmlns:dc="http://purl.org/dc/elements/1.1/"
   xmlns:cc="http://creativecommons.org/ns#"
   xmlns:rdf="http://www.w3.org/1999/02/22-rdf-syntax-ns#"
   xmlns:svg="http://www.w3.org/2000/svg"
   xmlns="http://www.w3.org/2000/svg"
   viewBox="0 0 34.631348 34.347095"
   height="34.347095"
   width="34.631348"
   version="1.1"
   id="svg2">
  <metadata
     id="metadata8">
    <rdf:RDF>
      <cc:Work
         rdf:about="">
        <dc:format>image/svg+xml</dc:format>
        <dc:type
           rdf:resource="http://purl.org/dc/dcmitype/StillImage" />
        <dc:title></dc:title>
      </cc:Work>
    </rdf:RDF>
  </metadata>
  <defs
     id="defs6" />
  <path
     id="path3338"
     d="m 0,33.96922 c 0,-0.497602 3.126208,-8.031813 3.499035,-8.43273 0.158864,-0.170833 1.488844,0.889394 2.95551,2.356061 1.466667,1.466666 2.526894,2.796646 2.356061,2.95551 -0.400917,0.372827 -7.93512797,3.499035 -8.43273,3.499035 C 0.170044,34.347096 0,34.177052 0,33.96922 Z m 7.966611,-8.157665 -2.382016,-2.53554 9.201465,-9.201466 9.201466,-9.2014647 3.022173,3.022173 3.022173,3.0221717 -9.439921,8.714834 c -5.191957,4.793158 -9.620687,8.714833 -9.841622,8.714833 -0.220936,0 -1.473609,-1.140993 -2.783718,-2.535541 z M 28.666415,5.5207963 C 26.051938,2.7918708 26.022073,2.637096 27.799584,1.0284704 c 1.734286,-1.56950703 2.005016,-1.49476453 4.673129,1.2901444 2.369461,2.4731844 2.623895,3.2071505 1.557294,4.492326 -1.735484,2.09113 -2.240508,1.9696528 -5.363592,-1.2901445 z"
     style="fill:#0797fe" />
</svg>
