<?xml version="1.0" encoding="UTF-8" standalone="no"?>
<svg
   xmlns:dc="http://purl.org/dc/elements/1.1/"
   xmlns:cc="http://creativecommons.org/ns#"
   xmlns:rdf="http://www.w3.org/1999/02/22-rdf-syntax-ns#"
   xmlns:svg="http://www.w3.org/2000/svg"
   xmlns="http://www.w3.org/2000/svg"
   viewBox="0 0 42 49"
   height="49"
   width="42"
   version="1.1"
   id="svg2">
  <metadata
     id="metadata8">
    <rdf:RDF>
      <cc:Work
         rdf:about="">
        <dc:format>image/svg+xml</dc:format>
        <dc:type
           rdf:resource="http://purl.org/dc/dcmitype/StillImage" />
        <dc:title></dc:title>
      </cc:Work>
    </rdf:RDF>
  </metadata>
  <defs
     id="defs6" />
  <path
     id="path3351"
     d="M 17,47.122445 C 17,46.089789 16.325,44.684689 15.5,44 14.675,43.315311 14,42.215122 14,41.555137 14,39.780332 20.010474,29 21,29 c 0.989526,0 6.999999,10.780332 6.999999,12.555137 0,0.659985 -0.675,1.760174 -1.5,2.444863 -0.825,0.684689 -1.5,2.089789 -1.5,3.122445 C 24.999999,48.646259 24.246379,49 21,49 17.75362,49 17,48.646259 17,47.122445 Z m 7.240659,-3.193536 c 1.66884,-2.932241 1.66034,-3.210514 -0.2058,-6.743677 C 22.418253,34.124524 22.080902,33.8813 22.044196,35.75 22.019886,36.9875 21.55,38 21,38 c -0.55,0 -1.019888,-1.0125 -1.044196,-2.25 -0.03671,-1.8687 -0.374057,-1.625476 -1.990662,1.435232 -1.866145,3.533163 -1.874638,3.811436 -0.205804,6.743677 0.957364,1.682145 2.415662,3.058446 3.240662,3.058446 0.825,0 2.283298,-1.376301 3.240659,-3.058446 z M 18,22.868493 C 18,22.084278 15.698035,21.884717 10.5,22.218306 4.63316,22.594817 3,22.405699 3,21.349814 3,20.432699 4.335675,20 7.166667,20 l 4.166666,0 -3.611757,-3.611757 C 5.735109,14.401776 3.817676,11.44637 3.460613,9.8206728 3.10355,8.1949768 2.178841,6.6221222 1.405704,6.3254416 0.632567,6.028761 0,4.4841674 0,2.8930112 0,0.3173554 0.344002,0 3.135924,0 L 6.271848,0 5.636777,4.6333465 c -0.508556,3.7103233 -0.216739,5.3102213 1.464848,8.0310865 2.281656,3.691796 10.048021,8.386628 10.689584,6.461941 0.488761,-1.466284 5.92882,-1.466284 6.41758,0 0.64157,1.924687 8.40793,-2.770145 10.68959,-6.461941 1.68158,-2.7208652 1.9734,-4.3207632 1.46484,-8.0310865 L 35.728149,0 l 3.13593,0 c 2.79192,0 3.13592,0.3173554 3.13592,2.8930112 0,1.5911562 -0.63257,3.1357498 -1.4057,3.4324304 -0.77314,0.2966806 -1.69785,1.8695352 -2.05491,3.4952312 -0.35706,1.6256972 -2.2745,4.5811032 -4.26096,6.5675702 L 30.666669,20 l 4.16666,0 c 2.831,0 4.16667,0.432699 4.16667,1.349814 0,1.055885 -1.63316,1.245003 -7.5,0.868492 -5.19803,-0.333589 -7.5,-0.134028 -7.5,0.650187 C 23.999999,23.490822 22.65,24 21,24 19.35,24 18,23.490822 18,22.868493 Z M 22,21 c 0,-0.55 -0.45,-1 -1,-1 -0.55,0 -1,0.45 -1,1 0,0.55 0.45,1 1,1 0.55,0 1,-0.45 1,-1 z M 4,3 C 4,2.45 3.55,2 3,2 2.45,2 2,2.45 2,3 2,3.55 2.45,4 3,4 3.55,4 4,3.55 4,3 Z m 35.999999,0 c 0,-0.55 -0.45,-1 -1,-1 -0.55,0 -1,0.45 -1,1 0,0.55 0.45,1 1,1 0.55,0 1,-0.45 1,-1 z"
     style="fill:#159cfe" />
</svg>
